<svg xmlns="http://www.w3.org/2000/svg" width="267" height="20" viewBox="0 0 267 20">
    <g fill="none" fill-rule="evenodd">
        <path fill="#FFF" fill-rule="nonzero" d="M3.52 16v-4.416h4.4V9.552H3.504v-2.8h4.96V4.656H1.296V16H3.52zm9.582.24c2.352 0 4.128-1.76 4.128-4.176 0-2.432-1.776-4.176-4.128-4.176-2.352 0-4.128 1.744-4.128 4.176 0 2.416 1.776 4.176 4.128 4.176zm0-1.936c-1.04 0-2-.768-2-2.24 0-1.488.96-2.24 2-2.24s2 .752 2 2.24c0 1.488-.96 2.24-2 2.24zM20.988 16V4.416H18.86V16h2.128zm5.47.192c1.056 0 1.856-.48 2.208-1.104 0 .368.048.752.08.912h2.032c-.032-.32-.064-.896-.064-1.424V4.416h-2.096v4.496c-.224-.416-.864-.976-2.224-.976-2.224 0-3.776 1.808-3.776 4.112 0 2.384 1.6 4.144 3.84 4.144zm.256-1.904c-1.12 0-1.952-.832-1.952-2.24 0-1.408.864-2.208 1.952-2.208s1.936.784 1.936 2.192c0 1.424-.848 2.256-1.936 2.256zM39.414 16V9.952h1.776V8.128h-1.776v-.864c0-.88.624-1.088 1.104-1.088.352 0 .56.048.672.08V4.464c-.176-.08-.608-.16-1.056-.16-1.744 0-2.864 1.152-2.864 2.928v.896h-1.312v1.824h1.312V16h2.144zm6.462.24c2.352 0 4.128-1.76 4.128-4.176 0-2.432-1.776-4.176-4.128-4.176-2.352 0-4.128 1.744-4.128 4.176 0 2.416 1.776 4.176 4.128 4.176zm0-1.936c-1.04 0-2-.768-2-2.24 0-1.488.96-2.24 2-2.24s2 .752 2 2.24c0 1.488-.96 2.24-2 2.24zM53.762 16v-3.6c0-1.696.944-2.224 2.032-2.224.192 0 .4.016.64.064V8.096c-.16-.016-.32-.032-.496-.032-.672 0-1.76.192-2.24 1.232V8.128h-2.064V16h2.128zm13.276.24c3.184 0 4.816-2.112 5.248-3.856l-2.064-.624c-.304 1.056-1.248 2.32-3.184 2.32-1.824 0-3.52-1.328-3.52-3.744 0-2.576 1.792-3.792 3.488-3.792 1.968 0 2.848 1.2 3.12 2.288l2.08-.656c-.448-1.84-2.064-3.76-5.2-3.76-3.04 0-5.776 2.304-5.776 5.92s2.64 5.904 5.808 5.904zm10.142 0c2.352 0 4.128-1.76 4.128-4.176 0-2.432-1.776-4.176-4.128-4.176-2.352 0-4.128 1.744-4.128 4.176 0 2.416 1.776 4.176 4.128 4.176zm0-1.936c-1.04 0-2-.768-2-2.24 0-1.488.96-2.24 2-2.24s2 .752 2 2.24c0 1.488-.96 2.24-2 2.24zM87.066 16l3.056-7.872h-2.24l-1.872 5.28-1.952-5.28h-2.336L84.938 16h2.128zm5.358-9.152c.736 0 1.312-.592 1.312-1.296 0-.736-.576-1.328-1.312-1.328-.72 0-1.312.592-1.312 1.328 0 .704.592 1.296 1.312 1.296zM93.496 16V8.128h-2.128V16h2.128zm5.47.192c1.056 0 1.856-.48 2.208-1.104 0 .368.048.752.08.912h2.032c-.032-.32-.064-.896-.064-1.424V4.416h-2.096v4.496c-.224-.416-.864-.976-2.224-.976-2.224 0-3.776 1.808-3.776 4.112 0 2.384 1.6 4.144 3.84 4.144zm.256-1.904c-1.12 0-1.952-.832-1.952-2.24 0-1.408.864-2.208 1.952-2.208s1.936.784 1.936 2.192c0 1.424-.848 2.256-1.936 2.256z" transform="translate(-1)"/>
        <g>
            <path fill="#FFF" fill-rule="nonzero" d="M93.485 14.5v-4.095h1.08L96.65 14.5h2.31l-2.28-4.35c1.395-.405 2.265-1.53 2.265-3.015 0-1.845-1.32-3.27-3.39-3.27H91.4V14.5h2.085zm1.68-5.88h-1.68V5.665h1.68c1.05 0 1.665.585 1.665 1.485 0 .87-.615 1.47-1.665 1.47zm8.518 6.105c2.205 0 3.87-1.65 3.87-3.915 0-2.28-1.665-3.915-3.87-3.915s-3.87 1.635-3.87 3.915c0 2.265 1.665 3.915 3.87 3.915zm0-1.815c-.975 0-1.875-.72-1.875-2.1 0-1.395.9-2.1 1.875-2.1s1.875.705 1.875 2.1-.9 2.1-1.875 2.1zm7.843 1.815c1.935 0 2.865-1.23 2.865-2.43 0-1.08-.735-1.965-2.19-2.265l-1.05-.225c-.405-.075-.675-.3-.675-.66 0-.42.42-.735.945-.735.84 0 1.155.555 1.215.99l1.665-.375c-.09-.795-.795-2.13-2.895-2.13-1.59 0-2.76 1.095-2.76 2.415 0 1.035.645 1.89 2.07 2.205l.975.225c.57.12.795.39.795.72 0 .39-.315.735-.975.735-.87 0-1.305-.54-1.35-1.125l-1.71.375c.09.84.855 2.28 3.075 2.28zm7.648 0c1.815 0 2.985-1.065 3.36-2.34l-1.665-.495c-.24.66-.75 1.125-1.68 1.125-.99 0-1.815-.705-1.86-1.68h5.28c0-.03.03-.33.03-.615 0-2.37-1.365-3.825-3.645-3.825-1.89 0-3.63 1.53-3.63 3.885 0 2.49 1.785 3.945 3.81 3.945zm1.5-4.755h-3.3c.045-.675.615-1.455 1.65-1.455 1.14 0 1.62.72 1.65 1.455zm6.313 4.635c.586 0 .946-.105 1.126-.18v-1.65c-.106.03-.376.06-.615.06-.57 0-.87-.21-.87-.855V8.89h1.485V7.12h-1.486V4.915h-1.8V5.95c0 .66-.36 1.17-1.14 1.17h-.374v1.77h1.334v3.435c0 1.425.9 2.28 2.34 2.28zm5.549 0c.585 0 .945-.105 1.125-.18v-1.65c-.105.03-.375.06-.615.06-.57 0-.87-.21-.87-.855V8.89h1.485V7.12h-1.485V4.915h-1.8V5.95c0 .66-.36 1.17-1.14 1.17h-.375v1.77h1.335v3.435c0 1.425.9 2.28 2.34 2.28zm4.903.105c1.095 0 1.8-.51 2.175-1.095 0 .285.03.69.075.885h1.83c-.045-.255-.09-.78-.09-1.17V9.7c0-1.485-.87-2.805-3.21-2.805-1.98 0-3.045 1.275-3.165 2.43l1.77.375c.06-.645.54-1.2 1.41-1.2.84 0 1.245.435 1.245.96 0 .255-.135.465-.555.525l-1.815.27c-1.23.18-2.205.915-2.205 2.235 0 1.155.96 2.22 2.535 2.22zm.42-1.485c-.645 0-.96-.42-.96-.855 0-.57.405-.855.915-.93l1.665-.255v.33c0 1.305-.78 1.71-1.62 1.71z" transform="translate(-1) translate(126)"/>
            <path fill="#FFF" d="M83.853 13.5L85 12.353 82.659 9.996 85 7.647 83.853 6.5 81.504 8.849 79.147 6.5 78 7.647 80.349 9.996 78 12.353 79.147 13.5 81.504 11.151z" transform="translate(-1) translate(126)"/>
            <g fill-rule="nonzero">
                <g fill="#FFF">
                    <path d="M0 .194h1.861v3.084h.028c.194-.278.472-.472.805-.64.334-.138.695-.25 1.056-.305.083 0 .194-.027.278-.027h.25c1.139 0 2.083.388 2.805 1.138.723.75 1.084 1.64 1.084 2.612 0 .138 0 .305-.028.444-.028.167-.056.306-.111.472-.084.306-.195.611-.334.89-.138.277-.333.555-.527.75-.334.388-.778.666-1.278.86-.5.195-1.028.306-1.556.306-.527 0-1.027-.084-1.472-.278-.444-.194-.833-.472-1.139-.889h-.028v.945H0V.194zm2.444 4.362c-.472.388-.694.86-.694 1.444 0 .611.222 1.139.639 1.556.417.416 1 .638 1.694.638.667 0 1.195-.194 1.611-.61.417-.39.612-.89.612-1.5 0-.584-.195-1.084-.612-1.5-.416-.417-.944-.612-1.61-.612-.612 0-1.167.195-1.64.584zM17.111 9.611H15.39v-.944h-.028c-.222.305-.528.555-.917.75-.388.194-.777.333-1.194.389-.083 0-.167.027-.25.027h-.25c-.611 0-1.139-.11-1.611-.305s-.889-.5-1.222-.861c-.306-.334-.556-.723-.723-1.167-.166-.444-.25-.917-.25-1.389 0-.5.084-.944.223-1.361.166-.417.416-.806.75-1.167.389-.416.833-.722 1.305-.916.472-.195 1-.306 1.584-.306.527 0 1.027.111 1.472.306.444.194.833.5 1.139.916v-1h1.722v7.028h-.028zm-1.778-3.555c0-.584-.194-1.084-.61-1.473-.417-.416-.945-.61-1.612-.583-.694 0-1.25.194-1.667.611-.444.417-.638.945-.638 1.556 0 .583.222 1.055.666 1.444.445.389 1 .583 1.611.583.667 0 1.223-.194 1.64-.61.388-.39.61-.917.61-1.528zM18.472.194L20.333.194 20.333 9.611 18.472 9.611zM23.472 6.833c.14.417.39.75.778 1 .389.25.806.361 1.278.361.36 0 .694-.055 1-.166.305-.111.555-.25.722-.445h2.056c-.223.64-.695 1.167-1.417 1.611-.722.445-1.472.667-2.306.667-1.139 0-2.083-.361-2.889-1.083-.805-.722-1.194-1.584-1.194-2.611 0-1.056.389-1.945 1.194-2.695.806-.75 1.778-1.11 2.917-1.11 1.111 0 2.056.36 2.833 1.11.778.75 1.167 1.611 1.167 2.584 0 .11 0 .222-.028.333-.027.111-.027.222-.055.305 0 .028-.028.056-.028.084v.083h-6.028v-.028zm4.25-1.5c-.139-.416-.416-.75-.805-.972-.39-.25-.834-.361-1.306-.361H25.5c-.444.028-.861.167-1.25.389-.389.25-.667.555-.778.944h4.25zM30.806 2.556h1.722v.638h.028c.222-.25.5-.472.833-.61.361-.14.722-.223 1.111-.25h.389c.361.027.722.11 1.083.277.361.139.64.361.917.611.028.028.083.056.111.084.028.027.056.055.083.11.306.39.473.778.528 1.223.056.444.083.861.083 1.333v3.64h-1.86V6.277v-.334c0-.11 0-.25-.028-.36-.028-.195-.056-.362-.112-.528-.055-.167-.11-.334-.222-.473-.11-.166-.278-.305-.5-.416-.222-.111-.416-.167-.639-.167h-.277c-.223.028-.417.083-.64.194-.194.112-.36.25-.472.417-.083.139-.166.306-.222.472-.055.195-.083.361-.083.556V9.61h-1.861V2.556h.028zM47.056 9.611h-1.723v-.944h-.027c-.223.305-.528.555-.917.75-.389.194-.778.333-1.195.389-.083 0-.166.027-.25.027h-.25c-.61 0-1.138-.11-1.61-.305-.473-.195-.89-.5-1.223-.861-.305-.334-.555-.723-.722-1.167-.167-.444-.25-.917-.25-1.389 0-.5.083-.944.222-1.361.167-.417.417-.806.75-1.167.389-.416.833-.722 1.306-.916.472-.195 1-.306 1.583-.306.528 0 1.028.111 1.472.306.445.194.834.5 1.14.916v-1h1.721v7.028h-.027zm-1.75-3.555c0-.584-.195-1.084-.612-1.473-.416-.416-.944-.61-1.61-.583-.695 0-1.25.194-1.667.611-.445.417-.64.945-.64 1.556 0 .583.223 1.055.667 1.444.445.389 1 .583 1.612.583.666 0 1.222-.194 1.638-.61.39-.39.612-.917.612-1.528z" transform="translate(-1) translate(126) translate(24.444 5)"/>
                </g>
                <path fill="#FBBF09" d="M9.583 17.583v2.14c.334-.056.667-.167.945-.334l6.139-3.5c.86-.5 1.389-1.389 1.389-2.389V6.528c0-.306-.056-.611-.167-.917l-1.861 1.083-5.14 2.945c-1.055.75-1.277 1.444-1.305 2.278v5.666z" transform="translate(-1) translate(126)"/>
                <path fill="#00A275" d="M15.611 5.944l1.861-1.083c-.222-.305-.5-.555-.805-.722l-6.14-3.5c-.86-.5-1.916-.472-2.75 0l-6.11 3.5c-.334.194-.611.444-.834.75l1.861 1.083 5.14 2.945c.61.389 1.027.777 1.305 1.222.278-.445.694-.833 1.305-1.222l5.167-2.973z" transform="translate(-1) translate(126)"/>
                <path fill="#EB8A04" d="M2.306 6.722L.416 5.64c-.11.278-.166.583-.166.889v7c0 .972.528 1.889 1.389 2.389l6.111 3.5c.278.166.611.277.944.333v-7.833c-.027-.834-.25-1.528-1.305-2.278L2.306 6.722z" transform="translate(-1) translate(126)"/>
                <path fill="#F5EA64" d="M17.889 5.611l-1.861 1.083c.055.195.11.417.11.64v5.388c0 .778-.416 1.528-1.11 1.917l-4.722 2.694c-.223.111-.445.195-.695.25v2.14c.333-.056.667-.167.945-.334l6.11-3.5c.862-.5 1.39-1.389 1.39-2.389V6.528c0-.306-.056-.611-.167-.917z" transform="translate(-1) translate(126)"/>
                <path fill="#48C0ED" d="M3.333 5.417l4.695-2.695c.694-.389 1.555-.389 2.222 0l4.722 2.695c.25.139.445.333.611.527l1.861-1.083c-.222-.305-.5-.555-.805-.722l-6.111-3.5c-.861-.5-1.917-.472-2.75 0l-6.111 3.5c-.334.194-.611.444-.834.75l1.861 1.083c.195-.222.39-.416.64-.555z" transform="translate(-1) translate(126)"/>
                <path fill="#FDD657" d="M8.028 17.333L3.333 14.64c-.694-.389-1.11-1.139-1.11-1.917V7.333c0-.222.027-.416.083-.61L.416 5.638c-.11.278-.166.583-.166.889v7c0 .972.528 1.889 1.389 2.389l6.111 3.5c.278.166.611.277.944.333v-2.139c-.222-.083-.444-.167-.666-.278z" transform="translate(-1) translate(126)"/>
            </g>
        </g>
        <path fill-rule="nonzero" stroke="#D9D9D9" stroke-linecap="square" d="M115.5 1.5L115.5 17" opacity=".6" transform="translate(-1)"/>
    </g>
</svg>
